<mxfile host="app.diagrams.net" agent="Mozilla/5.0 (Windows NT 10.0; Win64; x64) AppleWebKit/537.36 (KHTML, like Gecko) Chrome/127.0.0.0 Safari/537.36" version="24.7.7">
  <diagram name="Page-1" id="hASBsdIBKE_tWBu9pbZE">
    <mxGraphModel dx="955" dy="506" grid="1" gridSize="10" guides="1" tooltips="1" connect="1" arrows="1" fold="1" page="1" pageScale="1" pageWidth="827" pageHeight="1169" math="0" shadow="0">
      <root>
        <mxCell id="0" />
        <mxCell id="1" parent="0" />
        <mxCell id="1esEc9C22PGesizVBieg-3" value="" style="edgeStyle=orthogonalEdgeStyle;rounded=0;orthogonalLoop=1;jettySize=auto;html=1;" edge="1" parent="1" source="1esEc9C22PGesizVBieg-1" target="1esEc9C22PGesizVBieg-2">
          <mxGeometry relative="1" as="geometry" />
        </mxCell>
        <mxCell id="1esEc9C22PGesizVBieg-1" value="Sensor Inputs (Tally counter; Accelerometer; Eddy current)&amp;nbsp;" style="rounded=0;whiteSpace=wrap;html=1;" vertex="1" parent="1">
          <mxGeometry x="40" y="170" width="120" height="60" as="geometry" />
        </mxCell>
        <mxCell id="1esEc9C22PGesizVBieg-5" value="" style="edgeStyle=orthogonalEdgeStyle;rounded=0;orthogonalLoop=1;jettySize=auto;html=1;" edge="1" parent="1" source="1esEc9C22PGesizVBieg-2" target="1esEc9C22PGesizVBieg-4">
          <mxGeometry relative="1" as="geometry" />
        </mxCell>
        <mxCell id="1esEc9C22PGesizVBieg-2" value="Microcontroller" style="whiteSpace=wrap;html=1;rounded=0;" vertex="1" parent="1">
          <mxGeometry x="240" y="210" width="120" height="60" as="geometry" />
        </mxCell>
        <mxCell id="1esEc9C22PGesizVBieg-7" value="" style="edgeStyle=orthogonalEdgeStyle;rounded=0;orthogonalLoop=1;jettySize=auto;html=1;" edge="1" parent="1" source="1esEc9C22PGesizVBieg-4" target="1esEc9C22PGesizVBieg-6">
          <mxGeometry relative="1" as="geometry" />
        </mxCell>
        <mxCell id="1esEc9C22PGesizVBieg-4" value="Logical Processing and PID" style="whiteSpace=wrap;html=1;rounded=0;" vertex="1" parent="1">
          <mxGeometry x="440" y="210" width="120" height="60" as="geometry" />
        </mxCell>
        <mxCell id="1esEc9C22PGesizVBieg-6" value="Output Actuation" style="whiteSpace=wrap;html=1;rounded=0;" vertex="1" parent="1">
          <mxGeometry x="640" y="210" width="120" height="60" as="geometry" />
        </mxCell>
        <mxCell id="1esEc9C22PGesizVBieg-9" value="" style="endArrow=none;dashed=1;html=1;rounded=0;" edge="1" parent="1" target="1esEc9C22PGesizVBieg-10">
          <mxGeometry width="50" height="50" relative="1" as="geometry">
            <mxPoint x="180" y="200" as="sourcePoint" />
            <mxPoint x="160" y="170" as="targetPoint" />
          </mxGeometry>
        </mxCell>
        <mxCell id="1esEc9C22PGesizVBieg-10" value="ADC at 1KHz" style="text;html=1;align=center;verticalAlign=middle;whiteSpace=wrap;rounded=0;" vertex="1" parent="1">
          <mxGeometry x="150" y="150" width="60" height="30" as="geometry" />
        </mxCell>
        <mxCell id="1esEc9C22PGesizVBieg-12" style="edgeStyle=orthogonalEdgeStyle;rounded=0;orthogonalLoop=1;jettySize=auto;html=1;exitX=1;exitY=0.5;exitDx=0;exitDy=0;entryX=0;entryY=0.5;entryDx=0;entryDy=0;" edge="1" parent="1" source="1esEc9C22PGesizVBieg-11" target="1esEc9C22PGesizVBieg-2">
          <mxGeometry relative="1" as="geometry" />
        </mxCell>
        <mxCell id="1esEc9C22PGesizVBieg-11" value="Climber&#39;s Remote" style="rounded=0;whiteSpace=wrap;html=1;" vertex="1" parent="1">
          <mxGeometry x="40" y="250" width="120" height="60" as="geometry" />
        </mxCell>
        <mxCell id="1esEc9C22PGesizVBieg-16" value="Class 1 Bluetooth" style="text;html=1;align=center;verticalAlign=middle;whiteSpace=wrap;rounded=0;" vertex="1" parent="1">
          <mxGeometry x="150" y="310" width="60" height="30" as="geometry" />
        </mxCell>
        <mxCell id="1esEc9C22PGesizVBieg-19" value="" style="endArrow=none;dashed=1;html=1;rounded=0;exitX=0.574;exitY=-0.076;exitDx=0;exitDy=0;exitPerimeter=0;" edge="1" parent="1" source="1esEc9C22PGesizVBieg-16">
          <mxGeometry width="50" height="50" relative="1" as="geometry">
            <mxPoint x="190" y="300" as="sourcePoint" />
            <mxPoint x="184" y="280" as="targetPoint" />
          </mxGeometry>
        </mxCell>
      </root>
    </mxGraphModel>
  </diagram>
</mxfile>
